<svg xmlns="http://www.w3.org/2000/svg" version="1.1" xmlns:xlink="http://www.w3.org/1999/xlink" xmlns:svgjs="http://svgjs.dev/svgjs" width="1440" height="560" preserveAspectRatio="none" viewBox="0 0 1440 560"><g mask="url(&quot;#SvgjsMask1012&quot;)" fill="none"><rect width="1440" height="560" x="0" y="0" fill="#1e3266"></rect><path d="M1464 560L0 560 L0 319.19Q76.13 275.31, 120 351.44Q126.36 285.8, 192 292.16Q233.88 262.05, 264 303.93Q343.19 263.13, 384 342.32Q454.85 293.17, 504 364.03Q558.36 298.39, 624 352.75Q650.9 259.65, 744 286.56Q825.13 247.69, 864 328.82Q910.61 255.42, 984 302.03Q1026.11 272.14, 1056 314.25Q1103.75 290, 1128 337.75Q1194.69 284.44, 1248 351.14Q1269.86 301, 1320 322.85Q1337.58 268.43, 1392 286.01Q1437.81 259.81, 1464 305.62z" fill="rgba(35, 63, 117, 1)"></path><path d="M1512 560L0 560 L0 359.95Q55.43 343.38, 72 398.8Q118.19 373, 144 419.19Q192.18 395.37, 216 443.54Q258.59 366.13, 336 408.73Q382.94 383.67, 408 430.61Q424.62 375.23, 480 391.85Q507.48 347.33, 552 374.8Q604.11 354.91, 624 407.02Q703.97 366.99, 744 446.96Q766.01 348.98, 864 370.99Q934.32 321.31, 984 391.62Q1041.54 377.16, 1056 434.71Q1110.42 369.13, 1176 423.55Q1200.77 376.31, 1248 401.08Q1326.09 359.16, 1368 437.25Q1393.37 390.62, 1440 415.98Q1443.39 347.38, 1512 350.77z" fill="rgba(54, 98, 171, 1)"></path><path d="M1560 560L0 560 L0 435.25Q79.18 394.43, 120 473.6Q161.07 442.67, 192 483.74Q263.1 434.84, 312 505.93Q346.39 420.32, 432 454.71Q481.21 431.92, 504 481.13Q576.48 433.61, 624 506.09Q633.28 443.37, 696 452.64Q718.81 403.45, 768 426.26Q823.04 409.3, 840 464.34Q906.55 410.89, 960 477.44Q994.89 392.34, 1080 427.23Q1158.09 385.32, 1200 463.41Q1269.59 413, 1320 482.58Q1392.43 435.01, 1440 507.45Q1460.72 408.17, 1560 428.89z" fill="rgba(106, 174, 227, 1)"></path><path d="M1560 560L0 560 L0 549.4Q15.87 493.27, 72 509.15Q141.93 459.08, 192 529Q250.94 515.94, 264 574.88Q295.25 486.13, 384 517.37Q409.94 471.31, 456 497.25Q537.58 458.83, 576 540.41Q654.53 498.94, 696 577.47Q724.6 486.07, 816 514.66Q861.6 488.25, 888 533.85Q932.07 457.92, 1008 502Q1109.6 483.6, 1128 585.19Q1140.29 525.48, 1200 537.77Q1240.93 458.7, 1320 499.64Q1385.1 444.74, 1440 509.83Q1515.11 464.94, 1560 540.05z" fill="rgba(147, 206, 231, 1)"></path></g><defs><mask id="SvgjsMask1012"><rect width="1440" height="560" fill="#ffffff"></rect></mask></defs></svg>