<svg xmlns="http://www.w3.org/2000/svg" version="1.1" xmlns:xlink="http://www.w3.org/1999/xlink" xmlns:svgjs="http://svgjs.dev/svgjs" width="1440" height="560" preserveAspectRatio="none" viewBox="0 0 1440 560"><g mask="url(&quot;#SvgjsMask1000&quot;)" fill="none"><rect width="1440" height="560" x="0" y="0" fill="#0e2a47"></rect><path d="M264.49 60.12L329.44 97.62L329.44 172.62L264.49 210.12L199.54 172.62L199.54 97.62zM264.49 285.12L329.44 322.62L329.44 397.62L264.49 435.12L199.54 397.62L199.54 322.62zM329.44 172.62L394.4 210.12L394.4 285.12L329.44 322.62L264.49 285.12L264.49 210.12zM459.35 -52.38L524.31 -14.88L524.31 60.12L459.35 97.62L394.4 60.12L394.4 -14.88zM524.31 60.12L589.26 97.62L589.26 172.62L524.31 210.12L459.35 172.62L459.35 97.62zM459.35 397.62L524.31 435.12L524.31 510.12L459.35 547.62L394.4 510.12L394.4 435.12zM654.21 285.12L719.17 322.62L719.17 397.62L654.21 435.12L589.26 397.62L589.26 322.62zM654.21 510.12L719.17 547.62L719.17 622.62L654.21 660.12L589.26 622.62L589.26 547.62zM719.17 -52.38L784.12 -14.88L784.12 60.12L719.17 97.62L654.21 60.12L654.21 -14.88zM719.17 172.62L784.12 210.12L784.12 285.12L719.17 322.62L654.21 285.12L654.21 210.12zM784.12 510.12L849.08 547.62L849.08 622.62L784.12 660.12L719.17 622.62L719.17 547.62zM978.98 -52.38L1043.94 -14.88L1043.94 60.12L978.98 97.62L914.03 60.12L914.03 -14.88zM1108.89 -52.38L1173.84 -14.88L1173.84 60.12L1108.89 97.62L1043.94 60.12L1043.94 -14.88zM1173.84 60.12L1238.8 97.62L1238.8 172.62L1173.84 210.12L1108.89 172.62L1108.89 97.62zM1303.75 510.12L1368.7 547.62L1368.7 622.62L1303.75 660.12L1238.8 622.62L1238.8 547.62zM1368.7 172.62L1433.66 210.12L1433.66 285.12L1368.7 322.62L1303.75 285.12L1303.75 210.12zM1498.61 -52.38L1563.57 -14.88L1563.57 60.12L1498.61 97.62L1433.66 60.12L1433.66 -14.88zM1563.57 285.12L1628.52 322.62L1628.52 397.62L1563.57 435.12L1498.61 397.62L1498.61 322.62zM1498.61 397.62L1563.57 435.12L1563.57 510.12L1498.61 547.62L1433.66 510.12L1433.66 435.12z" stroke="#03305d" stroke-width="2"></path><path d="M256.99 60.12 a7.5 7.5 0 1 0 15 0 a7.5 7.5 0 1 0 -15 0zM321.94 97.62 a7.5 7.5 0 1 0 15 0 a7.5 7.5 0 1 0 -15 0zM321.94 172.62 a7.5 7.5 0 1 0 15 0 a7.5 7.5 0 1 0 -15 0zM256.99 210.12 a7.5 7.5 0 1 0 15 0 a7.5 7.5 0 1 0 -15 0zM192.04 172.62 a7.5 7.5 0 1 0 15 0 a7.5 7.5 0 1 0 -15 0zM192.04 97.62 a7.5 7.5 0 1 0 15 0 a7.5 7.5 0 1 0 -15 0zM256.99 285.12 a7.5 7.5 0 1 0 15 0 a7.5 7.5 0 1 0 -15 0zM321.94 322.62 a7.5 7.5 0 1 0 15 0 a7.5 7.5 0 1 0 -15 0zM321.94 397.62 a7.5 7.5 0 1 0 15 0 a7.5 7.5 0 1 0 -15 0zM256.99 435.12 a7.5 7.5 0 1 0 15 0 a7.5 7.5 0 1 0 -15 0zM192.04 397.62 a7.5 7.5 0 1 0 15 0 a7.5 7.5 0 1 0 -15 0zM192.04 322.62 a7.5 7.5 0 1 0 15 0 a7.5 7.5 0 1 0 -15 0zM386.9 210.12 a7.5 7.5 0 1 0 15 0 a7.5 7.5 0 1 0 -15 0zM386.9 285.12 a7.5 7.5 0 1 0 15 0 a7.5 7.5 0 1 0 -15 0zM451.85 -52.38 a7.5 7.5 0 1 0 15 0 a7.5 7.5 0 1 0 -15 0zM516.81 -14.88 a7.5 7.5 0 1 0 15 0 a7.5 7.5 0 1 0 -15 0zM516.81 60.12 a7.5 7.5 0 1 0 15 0 a7.5 7.5 0 1 0 -15 0zM451.85 97.62 a7.5 7.5 0 1 0 15 0 a7.5 7.5 0 1 0 -15 0zM386.9 60.12 a7.5 7.5 0 1 0 15 0 a7.5 7.5 0 1 0 -15 0zM386.9 -14.88 a7.5 7.5 0 1 0 15 0 a7.5 7.5 0 1 0 -15 0zM581.76 97.62 a7.5 7.5 0 1 0 15 0 a7.5 7.5 0 1 0 -15 0zM581.76 172.62 a7.5 7.5 0 1 0 15 0 a7.5 7.5 0 1 0 -15 0zM516.81 210.12 a7.5 7.5 0 1 0 15 0 a7.5 7.5 0 1 0 -15 0zM451.85 172.62 a7.5 7.5 0 1 0 15 0 a7.5 7.5 0 1 0 -15 0zM451.85 397.62 a7.5 7.5 0 1 0 15 0 a7.5 7.5 0 1 0 -15 0zM516.81 435.12 a7.5 7.5 0 1 0 15 0 a7.5 7.5 0 1 0 -15 0zM516.81 510.12 a7.5 7.5 0 1 0 15 0 a7.5 7.5 0 1 0 -15 0zM451.85 547.62 a7.5 7.5 0 1 0 15 0 a7.5 7.5 0 1 0 -15 0zM386.9 510.12 a7.5 7.5 0 1 0 15 0 a7.5 7.5 0 1 0 -15 0zM386.9 435.12 a7.5 7.5 0 1 0 15 0 a7.5 7.5 0 1 0 -15 0zM646.71 285.12 a7.5 7.5 0 1 0 15 0 a7.5 7.5 0 1 0 -15 0zM711.67 322.62 a7.5 7.5 0 1 0 15 0 a7.5 7.5 0 1 0 -15 0zM711.67 397.62 a7.5 7.5 0 1 0 15 0 a7.5 7.5 0 1 0 -15 0zM646.71 435.12 a7.5 7.5 0 1 0 15 0 a7.5 7.5 0 1 0 -15 0zM581.76 397.62 a7.5 7.5 0 1 0 15 0 a7.5 7.5 0 1 0 -15 0zM581.76 322.62 a7.5 7.5 0 1 0 15 0 a7.5 7.5 0 1 0 -15 0zM646.71 510.12 a7.5 7.5 0 1 0 15 0 a7.5 7.5 0 1 0 -15 0zM711.67 547.62 a7.5 7.5 0 1 0 15 0 a7.5 7.5 0 1 0 -15 0zM711.67 622.62 a7.5 7.5 0 1 0 15 0 a7.5 7.5 0 1 0 -15 0zM646.71 660.12 a7.5 7.5 0 1 0 15 0 a7.5 7.5 0 1 0 -15 0zM581.76 622.62 a7.5 7.5 0 1 0 15 0 a7.5 7.5 0 1 0 -15 0zM581.76 547.62 a7.5 7.5 0 1 0 15 0 a7.5 7.5 0 1 0 -15 0zM711.67 -52.38 a7.5 7.5 0 1 0 15 0 a7.5 7.5 0 1 0 -15 0zM776.62 -14.88 a7.5 7.5 0 1 0 15 0 a7.5 7.5 0 1 0 -15 0zM776.62 60.12 a7.5 7.5 0 1 0 15 0 a7.5 7.5 0 1 0 -15 0zM711.67 97.62 a7.5 7.5 0 1 0 15 0 a7.5 7.5 0 1 0 -15 0zM646.71 60.12 a7.5 7.5 0 1 0 15 0 a7.5 7.5 0 1 0 -15 0zM646.71 -14.88 a7.5 7.5 0 1 0 15 0 a7.5 7.5 0 1 0 -15 0zM711.67 172.62 a7.5 7.5 0 1 0 15 0 a7.5 7.5 0 1 0 -15 0zM776.62 210.12 a7.5 7.5 0 1 0 15 0 a7.5 7.5 0 1 0 -15 0zM776.62 285.12 a7.5 7.5 0 1 0 15 0 a7.5 7.5 0 1 0 -15 0zM646.71 210.12 a7.5 7.5 0 1 0 15 0 a7.5 7.5 0 1 0 -15 0zM776.62 510.12 a7.5 7.5 0 1 0 15 0 a7.5 7.5 0 1 0 -15 0zM841.58 547.62 a7.5 7.5 0 1 0 15 0 a7.5 7.5 0 1 0 -15 0zM841.58 622.62 a7.5 7.5 0 1 0 15 0 a7.5 7.5 0 1 0 -15 0zM776.62 660.12 a7.5 7.5 0 1 0 15 0 a7.5 7.5 0 1 0 -15 0zM971.48 -52.38 a7.5 7.5 0 1 0 15 0 a7.5 7.5 0 1 0 -15 0zM1036.44 -14.88 a7.5 7.5 0 1 0 15 0 a7.5 7.5 0 1 0 -15 0zM1036.44 60.12 a7.5 7.5 0 1 0 15 0 a7.5 7.5 0 1 0 -15 0zM971.48 97.62 a7.5 7.5 0 1 0 15 0 a7.5 7.5 0 1 0 -15 0zM906.53 60.12 a7.5 7.5 0 1 0 15 0 a7.5 7.5 0 1 0 -15 0zM906.53 -14.88 a7.5 7.5 0 1 0 15 0 a7.5 7.5 0 1 0 -15 0zM1101.39 -52.38 a7.5 7.5 0 1 0 15 0 a7.5 7.5 0 1 0 -15 0zM1166.34 -14.88 a7.5 7.5 0 1 0 15 0 a7.5 7.5 0 1 0 -15 0zM1166.34 60.12 a7.5 7.5 0 1 0 15 0 a7.5 7.5 0 1 0 -15 0zM1101.39 97.62 a7.5 7.5 0 1 0 15 0 a7.5 7.5 0 1 0 -15 0zM1231.3 97.62 a7.5 7.5 0 1 0 15 0 a7.5 7.5 0 1 0 -15 0zM1231.3 172.62 a7.5 7.5 0 1 0 15 0 a7.5 7.5 0 1 0 -15 0zM1166.34 210.12 a7.5 7.5 0 1 0 15 0 a7.5 7.5 0 1 0 -15 0zM1101.39 172.62 a7.5 7.5 0 1 0 15 0 a7.5 7.5 0 1 0 -15 0zM1296.25 510.12 a7.5 7.5 0 1 0 15 0 a7.5 7.5 0 1 0 -15 0zM1361.2 547.62 a7.5 7.5 0 1 0 15 0 a7.5 7.5 0 1 0 -15 0zM1361.2 622.62 a7.5 7.5 0 1 0 15 0 a7.5 7.5 0 1 0 -15 0zM1296.25 660.12 a7.5 7.5 0 1 0 15 0 a7.5 7.5 0 1 0 -15 0zM1231.3 622.62 a7.5 7.5 0 1 0 15 0 a7.5 7.5 0 1 0 -15 0zM1231.3 547.62 a7.5 7.5 0 1 0 15 0 a7.5 7.5 0 1 0 -15 0zM1361.2 172.62 a7.5 7.5 0 1 0 15 0 a7.5 7.5 0 1 0 -15 0zM1426.16 210.12 a7.5 7.5 0 1 0 15 0 a7.5 7.5 0 1 0 -15 0zM1426.16 285.12 a7.5 7.5 0 1 0 15 0 a7.5 7.5 0 1 0 -15 0zM1361.2 322.62 a7.5 7.5 0 1 0 15 0 a7.5 7.5 0 1 0 -15 0zM1296.25 285.12 a7.5 7.5 0 1 0 15 0 a7.5 7.5 0 1 0 -15 0zM1296.25 210.12 a7.5 7.5 0 1 0 15 0 a7.5 7.5 0 1 0 -15 0zM1491.11 -52.38 a7.5 7.5 0 1 0 15 0 a7.5 7.5 0 1 0 -15 0zM1556.07 -14.88 a7.5 7.5 0 1 0 15 0 a7.5 7.5 0 1 0 -15 0zM1556.07 60.12 a7.5 7.5 0 1 0 15 0 a7.5 7.5 0 1 0 -15 0zM1491.11 97.62 a7.5 7.5 0 1 0 15 0 a7.5 7.5 0 1 0 -15 0zM1426.16 60.12 a7.5 7.5 0 1 0 15 0 a7.5 7.5 0 1 0 -15 0zM1426.16 -14.88 a7.5 7.5 0 1 0 15 0 a7.5 7.5 0 1 0 -15 0zM1556.07 285.12 a7.5 7.5 0 1 0 15 0 a7.5 7.5 0 1 0 -15 0zM1621.02 322.62 a7.5 7.5 0 1 0 15 0 a7.5 7.5 0 1 0 -15 0zM1621.02 397.62 a7.5 7.5 0 1 0 15 0 a7.5 7.5 0 1 0 -15 0zM1556.07 435.12 a7.5 7.5 0 1 0 15 0 a7.5 7.5 0 1 0 -15 0zM1491.11 397.62 a7.5 7.5 0 1 0 15 0 a7.5 7.5 0 1 0 -15 0zM1491.11 322.62 a7.5 7.5 0 1 0 15 0 a7.5 7.5 0 1 0 -15 0zM1556.07 510.12 a7.5 7.5 0 1 0 15 0 a7.5 7.5 0 1 0 -15 0zM1491.11 547.62 a7.5 7.5 0 1 0 15 0 a7.5 7.5 0 1 0 -15 0zM1426.16 510.12 a7.5 7.5 0 1 0 15 0 a7.5 7.5 0 1 0 -15 0zM1426.16 435.12 a7.5 7.5 0 1 0 15 0 a7.5 7.5 0 1 0 -15 0z" fill="#03305d"></path><path d="M48.92 27.79L92.23 52.79L92.23 102.79L48.92 127.79L5.62 102.79L5.62 52.79zM135.53 27.79L178.83 52.79L178.83 102.79L135.53 127.79L92.23 102.79L92.23 52.79zM395.34 27.79L438.65 52.79L438.65 102.79L395.34 127.79L352.04 102.79L352.04 52.79zM525.25 252.79L568.55 277.79L568.55 327.79L525.25 352.79L481.95 327.79L481.95 277.79zM785.07 -47.21L828.37 -22.21L828.37 27.79L785.07 52.79L741.76 27.79L741.76 -22.21zM871.67 102.79L914.97 127.79L914.97 177.79L871.67 202.79L828.37 177.79L828.37 127.79zM1001.58 327.79L1044.88 352.79L1044.88 402.79L1001.58 427.79L958.28 402.79L958.28 352.79zM1174.79 27.79L1218.09 52.79L1218.09 102.79L1174.79 127.79L1131.48 102.79L1131.48 52.79zM1261.39 27.79L1304.69 52.79L1304.69 102.79L1261.39 127.79L1218.09 102.79L1218.09 52.79zM1218.09 252.79L1261.39 277.79L1261.39 327.79L1218.09 352.79L1174.79 327.79L1174.79 277.79zM1304.69 402.79L1348 427.79L1348 477.79L1304.69 502.79L1261.39 477.79L1261.39 427.79z" stroke="rgba(6, 80, 156, 0.93)" stroke-width="2"></path></g><defs><mask id="SvgjsMask1000"><rect width="1440" height="560" fill="#ffffff"></rect></mask></defs></svg>