<svg xmlns="http://www.w3.org/2000/svg" version="1.1" xmlns:xlink="http://www.w3.org/1999/xlink" xmlns:svgjs="http://svgjs.dev/svgjs" width="1440" height="560" preserveAspectRatio="none" viewBox="0 0 1440 560"><g mask="url(&quot;#SvgjsMask4234&quot;)" fill="none"><rect width="1440" height="560" x="0" y="0" fill="url(&quot;#SvgjsLinearGradient4235&quot;)"></rect><path d="M1440 0L808.43 0L1440 155z" fill="rgba(255, 255, 255, .1)"></path><path d="M808.43 0L1440 155L1440 248.17000000000002L521.81 0z" fill="rgba(255, 255, 255, .075)"></path><path d="M521.81 0L1440 248.17000000000002L1440 438.51L328.2299999999999 0z" fill="rgba(255, 255, 255, .05)"></path><path d="M328.23 0L1440 438.51L1440 501.45L314.40000000000003 0z" fill="rgba(255, 255, 255, .025)"></path><path d="M0 560L199.41 560L0 336.53z" fill="rgba(0, 0, 0, .1)"></path><path d="M0 336.53L199.41 560L559.07 560L0 230.65999999999997z" fill="rgba(0, 0, 0, .075)"></path><path d="M0 230.65999999999997L559.07 560L932.8100000000001 560L0 101.52999999999997z" fill="rgba(0, 0, 0, .05)"></path><path d="M0 101.52999999999997L932.8100000000001 560L1113.16 560L0 66.39999999999998z" fill="rgba(0, 0, 0, .025)"></path></g><defs><mask id="SvgjsMask4234"><rect width="1440" height="560" fill="#ffffff"></rect></mask><linearGradient x1="0%" y1="50%" x2="100%" y2="50%" gradientUnits="userSpaceOnUse" id="SvgjsLinearGradient4235"><stop stop-color="#0e2a47" offset="0"></stop><stop stop-color="rgba(168, 56, 184, 0.51)" offset="1"></stop></linearGradient></defs></svg>