<svg xmlns="http://www.w3.org/2000/svg" version="1.1" xmlns:xlink="http://www.w3.org/1999/xlink" xmlns:svgjs="http://svgjs.dev/svgjs" width="1440" height="560" preserveAspectRatio="none" viewBox="0 0 1440 560"><g mask="url(&quot;#SvgjsMask2562&quot;)" fill="none"><rect width="1440" height="560" x="0" y="0" fill="url(&quot;#SvgjsLinearGradient2563&quot;)"></rect><path d="M1440 0L1087.65 0L1440 234.65z" fill="rgba(255, 255, 255, .1)"></path><path d="M1087.65 0L1440 234.65L1440 306.5L732.9100000000001 0z" fill="rgba(255, 255, 255, .075)"></path><path d="M732.91 0L1440 306.5L1440 458.89L702.52 0z" fill="rgba(255, 255, 255, .05)"></path><path d="M702.52 0L1440 458.89L1440 531.03L283.58 0z" fill="rgba(255, 255, 255, .025)"></path><path d="M0 560L553.19 560L0 439.51z" fill="rgba(0, 0, 0, .1)"></path><path d="M0 439.51L553.19 560L918.6800000000001 560L0 374.75z" fill="rgba(0, 0, 0, .075)"></path><path d="M0 374.75L918.6800000000001 560L1193.54 560L0 372.17z" fill="rgba(0, 0, 0, .05)"></path><path d="M0 372.16999999999996L1193.54 560L1309.33 560L0 310.93999999999994z" fill="rgba(0, 0, 0, .025)"></path></g><defs><mask id="SvgjsMask2562"><rect width="1440" height="560" fill="#ffffff"></rect></mask><linearGradient x1="15.28%" y1="-39.29%" x2="84.72%" y2="139.29%" gradientUnits="userSpaceOnUse" id="SvgjsLinearGradient2563"><stop stop-color="#0e2a47" offset="0"></stop><stop stop-color="rgba(105, 239, 166, 0.68)" offset="1"></stop></linearGradient></defs></svg>